<?xml version="1.0" encoding="utf-8"?>
<!-- Generator: Adobe Illustrator 24.3.0, SVG Export Plug-In . SVG Version: 6.00 Build 0)  -->
<svg version="1.1" id="Layer_1" xmlns="http://www.w3.org/2000/svg" xmlns:xlink="http://www.w3.org/1999/xlink" x="0px" y="0px"
	 width="26px" height="25px" viewBox="0 0 26 25" style="enable-background:new 0 0 26 25;" xml:space="preserve">
<style type="text/css">
	.st0{fill:#FFFFFF;}
	.st1{fill-rule:evenodd;clip-rule:evenodd;fill:#FFFFFF;}
</style>
<g>
	<g>
		<path class="st0" d="M14.6,25.1L14,24.9c-0.1-0.1-0.3-0.2-0.6-0.3c-0.4-0.3-0.9-0.7-1.5-1.1c-0.2-0.2-0.5-0.3-0.7-0.4
			c-0.2-0.1-0.4-0.2-0.7-0.3l-0.4-0.2c-0.8-0.4-1.8-0.9-2.8-1.6c-2.7-1.8-4.7-3.8-5.9-6.3C0.1,12-0.3,9.5,0.2,7.3
			C0.6,5.6,1.5,4,2.9,2.7c1.9-1.8,4.8-2.1,8.2-1c0.8,0.3,1.6,0.7,2.3,1.2v0c0,0,0.1-0.1,0.1-0.1l0.3-0.3c0.2-0.2,0.5-0.4,0.7-0.7
			c0.3-0.3,0.6-0.5,0.9-0.7c0.5-0.4,0.8-0.5,0.9-0.5c1.6-0.5,3.5-1,5.8-0.1c1.3,0.6,2.4,1.5,3,2.7c0.8,1.5,1,3.6,0.7,6.1
			c-0.8,5.8-5.6,10.3-7.2,11.7c-0.5,0.5-1.1,1.1-1.7,1.8l-0.6,0.7c-0.4,0.4-0.8,0.8-1.1,1.1c-0.1,0.1-0.1,0.1-0.2,0.2L14.6,25.1z
			 M7.4,3.1c-1.1,0-2.3,0.3-3.1,1.1C3.2,5.2,2.5,6.4,2.2,7.7c-0.4,1.8,0,3.8,1.1,6c1.1,2.1,2.8,3.9,5.2,5.5c1,0.6,1.9,1.1,2.6,1.5
			l0.4,0.2c0.2,0.1,0.5,0.2,0.7,0.3c0.3,0.2,0.7,0.4,0.9,0.6c0.5,0.4,0.9,0.7,1.2,0.9c0.2-0.2,0.4-0.4,0.6-0.6l0.6-0.6
			c0.7-0.7,1.3-1.4,1.9-1.9c1.4-1.3,5.9-5.4,6.5-10.5c0.3-2.1,0.1-3.7-0.5-4.9c-0.4-0.8-1.1-1.4-2-1.8c-1.6-0.7-3-0.3-4.4,0.1
			c0,0,0,0-0.3,0.2c-0.2,0.2-0.5,0.4-0.8,0.6c-0.3,0.2-0.5,0.5-0.7,0.6l-0.2,0.2l-0.8-0.6L15,4.3l-0.1,0.1c-0.1,0.1-0.2,0.2-0.3,0.3
			l-1.2,0.8l-1.2-0.8c-0.6-0.4-1.2-0.7-1.8-1C9.8,3.4,8.6,3.1,7.4,3.1z"/>
	</g>
	<g>
		<path class="st1" d="M15,13.1c-0.7-0.9-1.3-1.9-1.7-3c-0.3-0.8-0.5-1.7-0.5-2.6c0-0.1,0-0.2,0-0.3c0-0.1,0.1-0.2,0.1-0.3
			c0.1-0.1,0.2-0.1,0.3-0.1c0.1,0,0.2,0,0.3,0.1c0.1,0.1,0.2,0.2,0.2,0.3c0,0.1,0,0.2,0,0.3c0,1.7,0.6,3.2,1.6,4.6
			c0.1,0.2,0.3,0.3,0.4,0.5c0.4,0.6,0.2,1.3-0.5,1.5c-1,0.4-2.1,0.5-3.1,0.1c-0.1,0-0.3-0.1-0.4-0.2c-0.1-0.1-0.1-0.2-0.2-0.3
			c0-0.1,0-0.2,0-0.3c0-0.1,0.1-0.2,0.2-0.2c0.1-0.1,0.2-0.1,0.3-0.1c0.1,0,0.3,0.1,0.4,0.1C13.4,13.4,14.2,13.4,15,13.1z"/>
	</g>
	<g>
		<path class="st1" d="M14.1,18.6C12.3,18.5,10.5,18,9,17c-0.1-0.1-0.2-0.1-0.3-0.2c-0.1-0.1-0.1-0.2-0.1-0.3c0-0.1,0-0.2,0.1-0.3
			C8.8,16,8.9,16,9,15.9c0.1,0,0.2,0,0.3,0c0.1,0.1,0.2,0.1,0.3,0.2c1,0.7,2.2,1.1,3.5,1.3c1.4,0.2,2.7,0,4-0.4
			c0.1,0,0.2-0.1,0.3-0.1c0.1,0,0.2,0,0.4,0c0.1,0,0.2,0.1,0.3,0.2c0.1,0.1,0.1,0.3,0,0.4c0,0.1-0.1,0.2-0.2,0.3
			c-0.1,0-0.1,0.1-0.2,0.1C16.5,18.3,15.3,18.6,14.1,18.6z"/>
	</g>
	<g>
		<path class="st1" d="M18.4,9.1c0,0.3-0.1,0.5-0.4,0.5c-0.1,0-0.2,0-0.3,0c-0.1,0-0.2-0.1-0.3-0.2c0-0.1-0.1-0.2-0.1-0.2
			c-0.3-0.7-0.5-1.4-0.7-2.2c0-0.1-0.1-0.2-0.1-0.3c0-0.1,0-0.2,0.1-0.3c0.1-0.1,0.1-0.2,0.3-0.2c0.1,0,0.2,0,0.3,0s0.2,0.1,0.3,0.2
			c0.1,0.1,0.1,0.2,0.1,0.3c0.3,0.7,0.5,1.4,0.7,2.1C18.4,8.9,18.4,9,18.4,9.1z"/>
	</g>
	<g>
		<path class="st1" d="M8.1,8.3c0-0.3,0.2-0.5,0.4-0.6c0.1,0,0.2,0,0.3,0.1C8.9,7.8,9,7.9,9,8c0.1,0.2,0.1,0.4,0.2,0.5
			c0.1,0.6,0.3,1.2,0.4,1.8c0,0.1,0,0.2,0,0.3c0,0.1,0,0.2-0.1,0.3c-0.1,0.1-0.2,0.2-0.3,0.2c-0.1,0-0.2,0-0.3,0
			c-0.1,0-0.2-0.1-0.2-0.2c0-0.1-0.1-0.2-0.1-0.2C8.4,9.9,8.3,9.2,8.1,8.5C8.1,8.5,8.1,8.4,8.1,8.3z"/>
	</g>
</g>
</svg>
