<svg width="26" height="25" viewBox="0 0 26 25" fill="none" xmlns="http://www.w3.org/2000/svg">
<path d="M12.8381 3.75533L13.4143 4.17429L13.9985 3.76655C14.0772 3.7116 14.1529 3.65232 14.2251 3.58894L14.2541 3.56348L14.2809 3.53605L14.2809 3.53602L14.281 3.53597L14.2811 3.53586L14.2814 3.53551L14.2844 3.5325L14.2979 3.5188C14.3102 3.50637 14.3289 3.48748 14.3534 3.46299C14.4025 3.41396 14.4746 3.34263 14.5645 3.25564C14.7448 3.08107 14.9938 2.84628 15.2704 2.60321C15.5489 2.35845 15.8443 2.11497 16.1186 1.91816C16.4111 1.70833 16.6108 1.60222 16.7085 1.56961L16.709 1.56944C18.1311 1.09417 19.7948 0.627572 21.7799 1.45485C22.7801 1.87165 23.6826 2.55467 24.2743 3.6917C24.8724 4.84133 25.2085 6.56257 24.8599 9.15135C24.178 14.2149 20.2727 18.1891 18.0038 20.2881L18.0037 20.2881C17.4681 20.7837 16.8102 21.5002 16.1997 22.1652C15.9976 22.3854 15.8006 22.6 15.615 22.799C15.2253 23.2167 14.8843 23.5685 14.614 23.8119C14.554 23.8658 14.5023 23.9102 14.4583 23.946C14.3441 23.8945 14.1962 23.8124 14.0089 23.6921C13.606 23.4335 13.1288 23.0695 12.5494 22.6276L12.5312 22.6137C12.3114 22.446 12.0172 22.284 11.7332 22.1357C11.5354 22.0324 11.3041 21.9164 11.0573 21.7926C10.9364 21.7319 10.8117 21.6694 10.6855 21.6056C9.89977 21.2086 8.95102 20.7116 7.95079 20.068C5.94761 18.7792 3.7784 16.9275 2.36952 14.1977C0.94463 11.4368 0.793536 9.22729 1.18953 7.50719C1.58964 5.7692 2.57434 4.41993 3.60226 3.44587C5.43182 1.71215 8.32104 1.84183 10.778 2.67035C11.5155 2.93259 12.2094 3.2982 12.8381 3.75533ZM14.2901 24.066C14.2904 24.0654 14.2978 24.0608 14.3117 24.0544C14.2968 24.0635 14.2899 24.0667 14.2901 24.066Z" stroke="white" stroke-width="2"/>
<path fill-rule="evenodd" clip-rule="evenodd" d="M14.9746 13.0618C14.2514 12.1777 13.6897 11.1779 13.3143 10.1064C13.0203 9.25686 12.8273 8.38733 12.8291 7.48399C12.8251 7.38308 12.8277 7.28202 12.837 7.18144C12.8485 7.06593 12.9007 6.95794 12.9848 6.87612C13.0689 6.7943 13.1795 6.74376 13.2975 6.73324C13.4153 6.71529 13.5357 6.73975 13.6365 6.80207C13.7373 6.8644 13.8116 6.96036 13.8456 7.0722C13.8745 7.16842 13.888 7.26844 13.8855 7.3687C13.8961 9.07047 14.4885 10.5798 15.4626 11.9625C15.5874 12.1403 15.7317 12.3058 15.8486 12.4888C16.2117 13.0592 16.0151 13.7415 15.3873 14.0076C14.3628 14.4419 13.3143 14.5078 12.2562 14.1195C12.1184 14.0707 11.9884 14.003 11.8701 13.9183C11.7866 13.8523 11.7268 13.7619 11.6994 13.6604C11.672 13.5588 11.6783 13.4513 11.7175 13.3535C11.7567 13.2558 11.8267 13.1727 11.9173 13.1165C12.008 13.0603 12.1146 13.0339 12.2216 13.041C12.3658 13.0621 12.5068 13.1006 12.6414 13.1554C13.4109 13.4328 14.1626 13.36 14.9746 13.0618ZM14.1485 18.585C12.2765 18.5304 10.5454 18.0284 8.99222 16.9768C8.89335 16.9152 8.80238 16.8421 8.72125 16.7592C8.64183 16.673 8.5957 16.5622 8.59085 16.4462C8.586 16.3302 8.62273 16.2161 8.69468 16.1238C8.76177 16.0279 8.86149 15.9586 8.97602 15.9281C9.09054 15.8976 9.21242 15.9079 9.31985 15.9573C9.42331 16.0113 9.52194 16.0736 9.61472 16.1437C10.6495 16.8329 11.8318 17.281 13.0708 17.4536C14.4318 17.6513 15.7583 17.4771 17.0476 17.0141C17.1574 16.9742 17.2645 16.9231 17.377 16.8936C17.4976 16.8598 17.6264 16.8683 17.7412 16.9177C17.8561 16.9671 17.9496 17.0543 18.0057 17.1641C18.0629 17.2827 18.0719 17.4182 18.031 17.5431C17.9901 17.6679 17.9022 17.7729 17.7852 17.8368C17.7337 17.8643 17.6801 17.8877 17.6249 17.9071C16.5177 18.3376 15.3397 18.5673 14.1485 18.585ZM18.4183 9.05747C18.4148 9.36609 18.2837 9.54381 18.0615 9.5993C17.9486 9.63506 17.8266 9.63204 17.7156 9.59075C17.6047 9.54945 17.5115 9.47234 17.4514 9.37216C17.4092 9.29651 17.3748 9.21694 17.3487 9.13463C17.0981 8.41421 16.8492 7.69351 16.6022 6.97252C16.5661 6.87888 16.5432 6.78089 16.534 6.68123C16.5279 6.57385 16.5573 6.46741 16.6178 6.3777C16.6784 6.28798 16.7669 6.21975 16.8702 6.18316C16.9734 6.14657 17.086 6.14355 17.1912 6.17455C17.2964 6.20555 17.3886 6.26892 17.454 6.35526C17.518 6.45086 17.5681 6.55474 17.6028 6.66389C17.8534 7.36956 18.1007 8.07554 18.3449 8.78179C18.382 8.89016 18.4042 9.00285 18.4183 9.05747ZM8.05713 8.28071C8.06333 7.97121 8.22714 7.77268 8.48837 7.72327C8.60543 7.70569 8.72511 7.72816 8.82722 7.78691C8.92932 7.84566 9.00761 7.93709 9.04888 8.04577C9.11416 8.22083 9.16568 8.40052 9.20297 8.58326C9.34288 9.1693 9.47954 9.75621 9.61296 10.344C9.63978 10.4407 9.65493 10.5403 9.65811 10.6405C9.65714 10.7526 9.61819 10.8612 9.54735 10.9492C9.47652 11.0373 9.37782 11.0998 9.26675 11.127C9.15569 11.1541 9.03855 11.1445 8.93372 11.0994C8.8289 11.0543 8.74233 10.9765 8.6876 10.878C8.64809 10.8014 8.61892 10.7201 8.60083 10.6361C8.42992 9.93914 8.26138 9.24155 8.0952 8.54339C8.07744 8.4566 8.06472 8.3689 8.05713 8.28071Z" fill="white"/>
</svg>
