<svg width="21" height="21" viewBox="0 0 21 21" fill="none" xmlns="http://www.w3.org/2000/svg">
<path d="M20.7846 17.6464C19.595 20.4989 16.806 20.9988 15.8946 20.9988C15.627 20.9988 11.4589 21.2199 5.46742 15.5351C0.645596 10.9601 0.0564307 6.04046 0.00509745 5.10572C-0.0448358 4.19525 0.215797 1.91127 3.35692 0.214266C3.74612 0.00397924 4.51776 -0.0891446 4.71702 0.110173C4.80546 0.198629 7.44188 4.53811 7.51118 4.68188C7.58048 4.82541 7.61525 4.96685 7.61525 5.10548C7.61525 5.30363 7.47408 5.5515 7.19152 5.84884C6.90918 6.14618 6.60212 6.41879 6.27009 6.66642C5.93805 6.91428 5.63099 7.17685 5.34842 7.45435C5.06609 7.73162 4.92492 7.95988 4.92492 8.13819C4.94406 8.60101 5.32322 10.2588 8.21165 12.7974C11.1005 15.3367 12.4921 16.0521 12.6258 16.1016C12.7598 16.151 12.8711 16.1756 12.9602 16.1756C13.1387 16.1756 13.3667 16.0346 13.6441 15.7522C13.9213 15.4695 14.8539 14.191 15.1512 13.9084C15.4485 13.6262 15.6963 13.485 15.8946 13.485C16.0332 13.485 16.1744 13.5195 16.3179 13.5889C16.4616 13.6582 20.8056 16.2008 20.8886 16.2857C21.114 16.5168 20.9549 17.238 20.7846 17.6464Z" fill="white"/>
</svg>
