<svg width="20" height="26" viewBox="0 0 20 26" fill="none" xmlns="http://www.w3.org/2000/svg">
<path fill-rule="evenodd" clip-rule="evenodd" d="M18 9.71901C18 12.8972 15.9211 16.3564 13.4741 19.2443C12.2919 20.6395 11.104 21.8083 10.2101 22.6289C10.138 22.695 10.0679 22.7588 10 22.8202C9.93209 22.7588 9.86201 22.695 9.78994 22.6289C8.89596 21.8083 7.70811 20.6395 6.52588 19.2443C4.0789 16.3564 2 12.8972 2 9.71901C2 5.50927 5.52761 2 10 2C14.4724 2 18 5.50927 18 9.71901ZM20 9.71901C20 17.5868 10 25.4545 10 25.4545C10 25.4545 0 17.5868 0 9.71901C0 4.35135 4.47715 0 10 0C15.5228 0 20 4.35135 20 9.71901ZM10 12.7273C11.5062 12.7273 12.7273 11.5062 12.7273 10C12.7273 8.49377 11.5062 7.27273 10 7.27273C8.49377 7.27273 7.27273 8.49377 7.27273 10C7.27273 11.5062 8.49377 12.7273 10 12.7273Z" fill="white"/>
</svg>
