<svg width="18" height="18" viewBox="0 0 18 18" fill="none" xmlns="http://www.w3.org/2000/svg">
<path fill-rule="evenodd" clip-rule="evenodd" d="M9 5.25C10.2426 5.25 11.25 4.24264 11.25 3C11.25 1.75736 10.2426 0.75 9 0.75C8.02034 0.75 7.18691 1.37611 6.87803 2.25H3.75C1.67893 2.25 0 3.92893 0 6C0 8.07107 1.67893 9.75 3.75 9.75H14.25C15.4926 9.75 16.5 10.7574 16.5 12C16.5 13.2426 15.4926 14.25 14.25 14.25H6.62197C6.31309 13.3761 5.47966 12.75 4.5 12.75C3.25736 12.75 2.25 13.7574 2.25 15C2.25 16.2426 3.25736 17.25 4.5 17.25C5.47966 17.25 6.31309 16.6239 6.62197 15.75H14.25C16.3211 15.75 18 14.0711 18 12C18 9.92893 16.3211 8.25 14.25 8.25H3.75C2.50736 8.25 1.5 7.24264 1.5 6C1.5 4.75736 2.50736 3.75 3.75 3.75H6.87803C7.18691 4.62389 8.02034 5.25 9 5.25Z" fill="#C053CC"/>
</svg>
