<svg width="32" height="23" viewBox="0 0 32 23" fill="none" xmlns="http://www.w3.org/2000/svg">
<path fill-rule="evenodd" clip-rule="evenodd" d="M31.9938 16.3366C31.7906 15.7924 31.0342 15.6003 30.4923 15.9205C30.0068 16.1979 29.8826 16.9341 29.6455 17.4357C29.1827 18.428 28.5392 19.5697 27.5344 20.1246C27.0151 20.4127 26.1458 20.4554 25.6264 20.0713C25.1071 19.6871 24.791 19.0042 24.52 18.3213C24.2491 17.6171 24.012 16.8808 23.8652 16.1339C23.5378 14.5333 23.3233 12.8367 23.2443 11.0974C23.2104 10.2224 23.1427 9.30477 23.1653 8.37645C23.2217 6.14632 23.0975 4.0229 23.2217 1.62205C23.2443 1.19523 23.3233 0.597689 23.1653 0.341598C23.0185 0.106848 22.5443 -0.0425383 22.0815 0.010814C21.4492 0.0855071 21.2912 0.768416 21.1331 1.32328C21.0202 1.70742 20.8848 2.08088 20.7832 2.43301C20.3203 4.03357 19.9477 5.4314 19.5639 7.05331C19.3832 7.84292 19.101 8.60053 18.9317 9.35813C18.5591 10.9267 18.0736 12.4526 17.6559 13.9464C17.4414 14.704 17.1705 15.4296 16.956 16.1765C16.7979 16.7421 16.6511 17.3396 16.4141 17.8411C16.3802 17.9265 16.3125 17.9905 16.2786 18.0759C16.2447 18.1719 16.2786 18.2893 16.1657 18.332C15.5786 16.1659 15.2061 13.8397 14.7319 11.5776C14.5738 10.82 14.4045 10.0624 14.269 9.29411C13.9981 7.72555 13.7045 6.34906 13.4223 4.69514C13.2981 3.98022 13.0836 3.20128 12.9594 2.43301C12.903 2.09155 12.8127 1.71809 12.711 1.32328C12.5756 0.789757 12.5304 0.277575 12.0901 0.117518C11.3563 -0.149243 10.6337 0.224223 10.487 0.661711C10.3967 0.917802 10.3967 1.25926 10.3741 1.59004C10.3515 1.91015 10.3176 2.25161 10.3176 2.57172C10.3176 3.2653 10.1935 3.94821 10.1822 4.52441C10.1483 5.9009 10.0354 7.128 9.93379 8.41913C9.83218 9.66757 9.69671 10.9587 9.54994 12.2178C9.25641 14.7894 8.86127 17.0515 7.7323 18.8335C7.17911 19.6978 6.34367 20.3487 4.90989 20.2953C4.23251 20.274 3.6906 20.0713 3.30675 19.7298C2.4939 18.9722 2.23424 18.0332 2.14392 16.6247C2.12134 16.2726 2.12134 15.9525 2.03102 15.6964C1.8391 15.1415 1.26332 14.8427 0.597233 15.1308C-0.407547 15.5683 0.111778 17.5744 0.326281 18.4387C0.608523 19.5804 1.16172 20.4554 1.87297 21.1276C2.57293 21.7785 3.75834 22.216 5.07923 22.2053C5.79048 22.1947 6.43399 22.1413 6.95332 21.9279C7.46135 21.7145 7.87907 21.4798 8.33066 21.1383C9.93379 19.9432 10.6112 17.6917 11.0853 15.4403C11.3337 14.2879 11.5369 13.0608 11.6047 11.791C11.6724 10.5212 11.7853 9.24075 11.9546 7.9603C12.4627 9.75293 12.7901 11.7376 13.1513 13.6797C13.2755 14.3199 13.4449 14.9494 13.5804 15.579C13.84 16.8168 14.111 18.0652 14.4158 19.3563C14.54 19.9005 14.7319 20.5514 14.8787 21.2023C15.0028 21.7465 15.1045 22.7069 15.4996 22.9203C15.7818 23.0697 16.685 22.9843 16.8769 22.8669C17.0689 22.7389 17.1705 22.3867 17.2608 22.0986C17.5317 21.2023 17.8253 20.2847 18.0736 19.4737C18.2543 18.8868 18.4575 18.3106 18.6155 17.7238C18.7849 17.1262 19.0333 16.5607 19.1913 15.9845C19.7106 14.1918 20.2187 12.3992 20.738 10.6493C20.9186 10.041 20.9864 9.42215 21.2347 8.84595C21.3589 11.8657 21.4718 14.9921 22.1266 17.425C22.3524 18.268 22.6572 19.0256 22.9959 19.7618C23.6846 21.245 24.8361 22.3867 27.0376 22.1947C29.0924 22.0133 29.8488 20.7115 30.8197 19.4524C30.639 19.2283 32.1067 16.614 31.9938 16.3366Z" fill="white"/>
</svg>
