<?xml version="1.0" encoding="utf-8"?>
<!-- Generator: Adobe Illustrator 15.0.0, SVG Export Plug-In . SVG Version: 6.00 Build 0)  -->
<!DOCTYPE svg PUBLIC "-//W3C//DTD SVG 1.1//EN" "http://www.w3.org/Graphics/SVG/1.1/DTD/svg11.dtd">
<svg version="1.1" id="Layer_1" xmlns="http://www.w3.org/2000/svg" xmlns:xlink="http://www.w3.org/1999/xlink" x="0px" y="0px"
	 width="91.526px" height="91.524px" viewBox="246.49 323.729 91.526 91.524" enable-background="new 246.49 323.729 91.526 91.524"
	 xml:space="preserve">
<g>
	<g>
		<defs>
			<rect id="SVGID_1_" width="595.275" height="841.891"/>
		</defs>
		<clipPath id="SVGID_2_">
			<use xlink:href="#SVGID_1_"  overflow="visible"/>
		</clipPath>
		<path clip-path="url(#SVGID_2_)" fill="#58595B" d="M292.854,324.245v-0.214h-0.51v0.214c0.085-0.001,0.169-0.006,0.255-0.006
			C292.684,324.239,292.768,324.244,292.854,324.245"/>
	</g>
	<g>
		<defs>
			<rect id="SVGID_3_" width="595.275" height="841.891"/>
		</defs>
		<clipPath id="SVGID_4_">
			<use xlink:href="#SVGID_3_"  overflow="visible"/>
		</clipPath>
		<path clip-path="url(#SVGID_4_)" fill="#58595B" d="M292.854,324.245v-0.214h-0.51v0.214c0.085-0.001,0.169-0.006,0.255-0.006
			C292.684,324.239,292.768,324.244,292.854,324.245"/>
	</g>
	<g>
		<defs>
			<rect id="SVGID_5_" width="595.275" height="841.891"/>
		</defs>
		<clipPath id="SVGID_6_">
			<use xlink:href="#SVGID_5_"  overflow="visible"/>
		</clipPath>
		<path clip-path="url(#SVGID_6_)" fill="#58595B" d="M292.854,324.245v-0.214h-0.51v0.214c0.085-0.001,0.169-0.006,0.255-0.006
			C292.684,324.239,292.768,324.244,292.854,324.245"/>
	</g>
	<g>
		<defs>
			<rect id="SVGID_7_" width="595.275" height="841.891"/>
		</defs>
		<clipPath id="SVGID_8_">
			<use xlink:href="#SVGID_7_"  overflow="visible"/>
		</clipPath>
		<path clip-path="url(#SVGID_8_)" fill="#58595B" d="M303.649,357.392h-0.764c-0.406,0-0.763,0.103-1.068,0.306
			c-0.202,0.204-0.305,0.51-0.305,0.915v23.952h-0.914l-16.173-23.189h-0.305v21.054c0,0.407,0.101,0.712,0.305,0.915
			c0.305,0.204,0.661,0.306,1.068,0.306h0.763v0.915h-5.187v-0.915h0.763c0.508,0,0.863-0.102,1.068-0.306
			c0.203-0.203,0.305-0.508,0.305-0.915v-21.816c0-0.405-0.102-0.711-0.305-0.915c-0.205-0.203-0.56-0.306-1.068-0.306h-0.916
			v-0.915h4.272l15.104,21.663h0.306v-19.527c0-0.405-0.103-0.711-0.306-0.915c-0.205-0.203-0.562-0.306-1.067-0.306h-0.764v-0.915
			h5.188V357.392L303.649,357.392z"/>
	</g>
	<g>
		<defs>
			<rect id="SVGID_9_" width="595.275" height="841.891"/>
		</defs>
		<clipPath id="SVGID_10_">
			<use xlink:href="#SVGID_9_"  overflow="visible"/>
		</clipPath>
		<path clip-path="url(#SVGID_10_)" fill="#58595B" d="M334.655,386.861c0.822-2.001,1.51-4.069,2.043-6.198
			c0.009-0.032,0.015-0.063,0.021-0.094c0.17-0.68,0.325-1.362,0.463-2.053c0.02-0.095,0.033-0.191,0.051-0.288
			c0.123-0.628,0.238-1.259,0.332-1.896c0.031-0.196,0.05-0.396,0.076-0.594c0.074-0.542,0.149-1.084,0.205-1.633
			c0.034-0.354,0.053-0.713,0.08-1.067c0.03-0.402,0.07-0.8,0.09-1.204c0.039-0.767,0.06-1.538,0.06-2.314
			c0-0.775-0.021-1.548-0.06-2.313c-0.02-0.404-0.06-0.803-0.09-1.204c-0.027-0.354-0.046-0.714-0.08-1.067
			c-0.056-0.549-0.131-1.091-0.205-1.633c-0.026-0.197-0.045-0.397-0.076-0.595c-0.094-0.637-0.209-1.268-0.332-1.897
			c-0.018-0.095-0.031-0.191-0.051-0.287c-0.138-0.69-0.293-1.372-0.463-2.052c-0.008-0.03-0.014-0.062-0.021-0.094
			c-0.533-2.129-1.221-4.198-2.043-6.198c-0.002-0.006-0.004-0.013-0.008-0.019l-0.078-0.2
			c-4.654-11.167-13.605-20.105-24.779-24.747l-0.148-0.059c-0.004-0.002-0.011-0.004-0.016-0.006
			c-2.001-0.822-4.07-1.51-6.201-2.043c-0.031-0.009-0.062-0.015-0.093-0.022c-0.679-0.168-1.36-0.325-2.052-0.462
			c-0.096-0.021-0.194-0.034-0.292-0.053c-0.628-0.121-1.257-0.236-1.894-0.331c-0.199-0.03-0.4-0.05-0.601-0.077
			c-0.54-0.073-1.08-0.148-1.625-0.202c-0.37-0.037-0.744-0.057-1.116-0.085c-0.385-0.029-0.767-0.067-1.155-0.086
			c-0.767-0.039-1.539-0.059-2.316-0.059c-0.776,0-1.548,0.02-2.315,0.059c-0.388,0.019-0.771,0.057-1.156,0.086
			c-0.372,0.028-0.746,0.048-1.115,0.085c-0.546,0.054-1.085,0.129-1.625,0.202c-0.2,0.028-0.402,0.047-0.601,0.077
			c-0.636,0.095-1.265,0.21-1.892,0.331c-0.097,0.019-0.196,0.032-0.293,0.053c-0.689,0.137-1.372,0.294-2.051,0.462
			c-0.03,0.008-0.062,0.014-0.092,0.022c-2.131,0.533-4.2,1.221-6.201,2.043c-0.005,0.002-0.011,0.004-0.016,0.006l-0.319,0.126
			c-13.161,5.528-23.211,17.035-26.74,31.102c-0.005,0.021-0.009,0.042-0.014,0.063c-0.172,0.688-0.33,1.381-0.47,2.081
			c-0.017,0.085-0.029,0.171-0.046,0.255c-0.124,0.64-0.24,1.281-0.337,1.93c-0.027,0.183-0.045,0.369-0.07,0.552
			c-0.077,0.557-0.153,1.111-0.209,1.673c-0.036,0.356-0.054,0.717-0.082,1.074c-0.03,0.398-0.069,0.793-0.089,1.194
			c-0.039,0.767-0.059,1.539-0.059,2.315s0.02,1.55,0.059,2.316c0.02,0.399,0.059,0.793,0.089,1.189
			c0.027,0.359,0.046,0.722,0.082,1.079c0.056,0.56,0.132,1.113,0.208,1.668c0.025,0.185,0.043,0.372,0.071,0.557
			c0.097,0.646,0.212,1.285,0.336,1.921c0.017,0.088,0.03,0.177,0.047,0.264c0.139,0.696,0.297,1.386,0.467,2.068
			c0.006,0.026,0.011,0.052,0.018,0.077c0.536,2.136,1.224,4.211,2.049,6.217l0.001,0.002l0.101,0.254
			c4.66,11.144,13.602,20.062,24.759,24.695l0.148,0.058c0.005,0.003,0.011,0.005,0.016,0.007c2.001,0.822,4.07,1.51,6.201,2.044
			c0.03,0.008,0.062,0.014,0.092,0.021c0.679,0.169,1.362,0.325,2.051,0.463c0.097,0.021,0.196,0.034,0.293,0.053
			c0.627,0.121,1.256,0.236,1.892,0.331c0.199,0.03,0.401,0.05,0.601,0.076c0.54,0.074,1.079,0.148,1.625,0.203
			c0.369,0.037,0.743,0.057,1.115,0.085c0.385,0.029,0.768,0.067,1.156,0.086c0.767,0.039,1.539,0.06,2.315,0.06
			c0.777,0,1.549-0.021,2.316-0.06c0.388-0.019,0.77-0.057,1.155-0.086c0.372-0.028,0.746-0.048,1.116-0.085
			c0.545-0.055,1.085-0.129,1.625-0.203c0.198-0.027,0.401-0.046,0.601-0.076c0.637-0.095,1.266-0.21,1.893-0.331
			c0.099-0.019,0.197-0.032,0.293-0.053c0.689-0.138,1.373-0.294,2.052-0.463c0.03-0.007,0.062-0.013,0.093-0.021
			c2.131-0.534,4.2-1.222,6.201-2.044c0.005-0.002,0.011-0.004,0.016-0.007l0.148-0.058c11.174-4.641,20.125-13.58,24.779-24.747
			l0.078-0.2C334.651,386.874,334.653,386.867,334.655,386.861 M333.839,387.485c-2.253,5.191-5.449,9.883-9.375,13.852
			l-7.052-7.051l16.429-6.806C333.841,387.482,333.84,387.484,333.839,387.485 M250.199,386.193
			c-0.253-0.635-0.491-1.276-0.716-1.925v-0.001c-1.573-4.549-2.444-9.421-2.472-14.491h9.992l-6.803,16.422
			C250.2,386.196,250.199,386.195,250.199,386.193 M326.789,369.521l-9.595,9.595v-19.19L326.789,369.521z M317.194,359.203v-13.987
			l16.88,6.993l-6.991,16.883L317.194,359.203z M327.039,369.994l0.073,0.031l6.962,16.806l-16.88,6.992v-13.985L327.039,369.994z
			 M327.563,369.776h9.994c-0.033,5.796-1.166,11.333-3.191,16.424L327.563,369.776z M327.563,369.264l6.803-16.424
			c2.025,5.091,3.158,10.628,3.191,16.424H327.563z M333.841,351.559l-16.429-6.806l7.052-7.051c3.926,3.97,7.122,8.66,9.375,13.852
			C333.84,351.556,333.841,351.558,333.841,351.559 M310.246,327.964c5.192,2.254,9.885,5.449,13.854,9.376l-7.052,7.052
			l-6.806-16.429C310.245,327.963,310.245,327.963,310.246,327.964 M250.492,386.832l6.99-16.876l0.007-0.003l9.885,9.886v13.985
			L250.492,386.832z M267.156,394.286l-7.052,7.051c-3.927-3.971-7.123-8.662-9.376-13.855L267.156,394.286z M257.777,369.521
			l9.596-9.597v19.192L257.777,369.521z M257.483,369.09l-6.992-16.881l16.882-6.992v13.984L257.483,369.09z M257.001,369.264
			h-9.991c0.032-5.795,1.165-11.332,3.189-16.422L257.001,369.264z M250.728,351.559c2.253-5.193,5.449-9.885,9.376-13.856
			l7.052,7.052L250.728,351.559z M260.467,337.34c3.971-3.927,8.664-7.124,13.858-9.378l-6.785,16.451L260.467,337.34z
			 M292.54,334.239v-9.993c5.796,0.033,11.332,1.165,16.422,3.189L292.54,334.239z M309.595,327.729l6.991,16.883h-13.983
			l-9.888-9.89L309.595,327.729z M301.88,344.61h-19.192l9.596-9.598L301.88,344.61z M292.027,334.239l-16.422-6.804
			c5.091-2.024,10.627-3.156,16.422-3.189V334.239z M291.854,334.721l-9.889,9.89h-13.938l-0.008-0.02l6.954-16.863L291.854,334.721
			z M281.454,345.123l-13.568,13.567v-13.567H281.454z M267.886,380.35l13.567,13.568h-13.567V380.35z M281.964,394.43l9.889,9.891
			l-16.88,6.992l-6.993-16.883H281.964L281.964,394.43z M292.027,404.801v9.993c-5.795-0.033-11.331-1.166-16.422-3.19
			L292.027,404.801z M282.688,394.43h19.192l-9.596,9.598L282.688,394.43z M292.54,404.801l16.422,6.803
			c-5.091,2.024-10.626,3.157-16.422,3.19V404.801z M292.712,404.32l9.889-9.891h13.932l0.027,0.065l-6.965,16.816L292.712,404.32z
			 M303.112,393.918l13.57-13.568v13.568H303.112z M302.392,393.918h-20.216l-14.29-14.29v-20.217l14.29-14.289h20.216
			l14.291,14.291v20.214L302.392,393.918z M303.114,345.123h13.568v13.569L303.114,345.123z M274.321,411.076
			c-5.193-2.254-9.884-5.45-13.854-9.376l7.051-7.051l6.805,16.428C274.322,411.076,274.321,411.076,274.321,411.076
			 M317.05,394.648l7.053,7.052c-3.972,3.926-8.662,7.122-13.855,9.376c0,0-0.001,0-0.002,0.001L317.05,394.648z"/>
	</g>
</g>
</svg>
